<svg version="1.1" id="shopping_x5F_carts_1_" xmlns="http://www.w3.org/2000/svg" x="0" y="0" viewBox="0 0 128 128"
     style="enable-background:new 0 0 128 128" xml:space="preserve"><style>.st0{display:none}.st1{display:inline}.st2{fill:#4A3225}</style>
    <g id="_x31_1_1_"><path class="st2" d="M20 120.5s3.5 3.4 6.2 3.4h75.5s5.2.2 6.1-3.6l16.8-62H3.3L20 120.5zm75.2-9.7H32.8c-1.8 0-3.3-1.5-3.3-3.3s1.5-3.3 3.3-3.3h62.4c1.8 0 3.3 1.5 3.3 3.3s-1.5 3.3-3.3 3.3zm3.3-16.4h-69c-1.8 0-3.3-1.5-3.3-3.3s1.5-3.3 3.3-3.3h68.9c1.8 0 3.3 1.5 3.3 3.3s-1.4 3.3-3.2 3.3zm-72.2-23h75.5c1.8 0 3.3 1.5 3.3 3.3 0 1.8-1.5 3.3-3.3 3.3H26.3c-1.8 0-3.3-1.5-3.3-3.3 0-1.8 1.4-3.3 3.3-3.3zm82.8-26.3L84.2 10.4c.1-.5.3-.9.3-1.4 0-2.7-2.2-4.9-4.9-4.9S74.7 6.3 74.7 9s2.2 4.9 4.9 4.9c.5 0 .9-.1 1.3-.3L102.3 45H25.6l21.5-31.4c.3.1.7.2 1 .2 2.7 0 4.9-2.2 4.9-4.9S50.8 4 48.1 4s-4.9 2.2-4.9 4.9c0 .5.1 1 .3 1.5L18.9 45.1H0V55h128v-9.8h-18.9z" id="icon_4_"/></g></svg>